<svg width="125" height="71" viewBox="0 0 125 71" fill="none" xmlns="http://www.w3.org/2000/svg">
<path fill-rule="evenodd" clip-rule="evenodd" d="M114.051 27.9659C114.028 27.4782 114.032 27.0034 114.055 26.5577C114.134 25.2174 115.38 25.222 115.476 25.2239C115.679 25.2285 116.584 25.2857 116.801 26.3307C116.815 26.393 116.847 26.8443 116.856 27.0182C116.874 27.3892 116.884 27.7537 116.833 28.1195C116.879 28.7401 116.981 29.3787 117.174 29.9794C117.456 30.8662 117.913 31.6846 118.738 32.1207C120.215 32.905 122.157 32.8732 123.781 33.0725C124.46 33.1555 124.976 33.7212 124.999 34.404C125.018 35.0873 124.538 35.6834 123.864 35.8076C121.834 36.1831 119.5 38.0291 118.014 39.5157C117.557 39.9725 117.045 41.0604 116.473 41.7571C116.012 42.3154 115.5 42.6896 115.015 42.8381C114.826 42.8958 113.779 43.1062 113.308 42.022C113.179 41.7175 112.722 40.1229 112.68 39.9411C112.431 38.8993 112.076 37.9687 111.379 37.14C110.775 36.4217 110.041 35.7942 109.16 35.4463C108.805 35.3061 108.436 35.1995 108.067 35.0897C107.937 35.074 107.573 35.0278 107.444 34.984C107.181 34.8963 106.987 34.7589 106.849 34.6218C106.586 34.3625 106.452 34.0529 106.429 33.7004C106.41 33.4679 106.443 33.192 106.609 32.8861C106.733 32.6688 107.015 32.3417 107.522 32.1294C108.053 31.9075 109.192 31.6966 109.395 31.6417C110.807 31.2615 112.191 30.6835 113.276 29.6813C113.815 29.1803 113.94 28.64 114.051 27.9659ZM114.955 31.8895C115.5 33.0181 116.312 33.968 117.442 34.5665C117.908 34.8151 118.415 35.0039 118.941 35.1506C117.857 35.9054 116.851 36.7636 116.053 37.559C115.795 37.8178 115.513 38.2368 115.213 38.6968C114.863 37.4686 114.346 36.3654 113.497 35.3559C112.994 34.7607 112.427 34.2167 111.795 33.7632C112.939 33.3101 114.023 32.7039 114.955 31.8895Z" fill="#35312B"/>
<path fill-rule="evenodd" clip-rule="evenodd" d="M85.2097 67.1703C95.7108 67.424 106.443 66.9119 116.482 70.5015C117.202 70.7598 117.996 70.3815 118.254 69.6664C118.513 68.9466 118.134 68.153 117.414 67.8946C107.093 64.2036 96.0707 64.6603 85.2789 64.402C84.513 64.3835 83.8809 64.9879 83.8625 65.7492C83.844 66.5151 84.4484 67.1472 85.2097 67.1703Z" fill="#35312B"/>
<path fill-rule="evenodd" clip-rule="evenodd" d="M84.4298 51.8297C87.6825 48.8376 91.2306 46.5939 95.5214 45.4829C96.2597 45.2914 96.7026 44.5356 96.5134 43.7961C96.3197 43.0565 95.5676 42.6117 94.8248 42.8032C90.0818 44.0309 86.1507 46.4855 82.5565 49.7918C81.9936 50.309 81.9567 51.1851 82.4735 51.7475C82.9902 52.31 83.8669 52.3469 84.4298 51.8297Z" fill="#35312B"/>
<path fill-rule="evenodd" clip-rule="evenodd" d="M75.3681 18.771C76.8584 13.6704 79.7882 9.67992 84.2775 6.79857C84.9188 6.3861 85.1079 5.52884 84.6927 4.88613C84.2821 4.24296 83.4239 4.0561 82.7826 4.46904C77.7073 7.72503 74.3946 12.2314 72.7105 17.9954C72.4983 18.7286 72.9182 19.4977 73.6518 19.7118C74.3854 19.9259 75.1559 19.5042 75.3681 18.771Z" fill="#35312B"/>
<path fill-rule="evenodd" clip-rule="evenodd" d="M23.0379 11.6778C22.1705 12.7085 21.3953 13.8159 20.7309 14.9924C20.3434 15.6711 19.6605 17.2518 19.7759 18.3965C19.8635 19.2542 20.2695 19.9518 21.0816 20.3634C22.3781 21.0222 23.4162 20.9415 24.2144 20.5433C24.9803 20.1622 25.5893 19.4194 25.9676 18.4159C26.6413 16.6243 26.5629 13.916 26.2214 12.2845C27.1442 11.3438 28.1546 10.4884 29.2297 9.72523C37.4977 3.86427 49.6275 6.05399 58.9614 14.8175C62.2326 17.8876 63.7875 24.3419 64.6042 31.2982C65.8914 42.2136 65.1578 54.4047 65.0563 57.9763C65.0333 58.9161 65.1348 59.4735 65.1809 59.5847C65.4393 60.1988 65.9007 60.3603 66.219 60.4202C66.6666 60.5033 67.0218 60.4157 67.3125 60.2634C67.7001 60.0604 68.023 59.7042 68.1707 59.1496C68.2445 58.8663 68.2675 58.4728 68.2583 58.0524C68.2491 57.8038 68.1891 57.5325 68.2399 57.3544C68.5998 56.1026 69.0334 54.8795 69.4533 53.6485C70.8651 49.5076 72.6969 45.6274 74.7223 41.7513C81.1771 29.4277 87.4059 16.4024 97.9854 7.01322C98.5576 6.50616 98.6129 5.63092 98.1054 5.05927C97.5979 4.48807 96.7213 4.43593 96.1491 4.94299C85.3158 14.5555 78.8748 27.8502 72.2724 40.4677C70.736 43.3993 69.3149 46.3351 68.0922 49.377C68.203 42.5093 68.0369 33.2028 66.5097 25.5216C65.4254 20.0441 63.6122 15.3823 60.8577 12.7994C50.4442 3.02272 36.8518 0.928013 27.6287 7.46675C26.7197 8.10992 25.857 8.81216 25.0403 9.56976C20.1404 1.01293 9.88377 -2.38194 0.808304 1.75991C0.116225 2.07734 -0.192895 2.89905 0.125462 3.5939C0.443818 4.28874 1.26507 4.59555 1.95715 4.27812C9.95759 0.627646 19.0192 3.84766 23.0379 11.6778ZM23.7484 15.3541C23.5362 15.6812 23.3332 16.0153 23.1394 16.3562C23.001 16.5952 22.7933 17.0114 22.6503 17.4562C22.6042 17.6107 22.5673 17.8539 22.5488 18.0025C22.7195 18.0837 22.8579 18.1261 22.9825 18.0648C23.1855 17.9628 23.2732 17.7085 23.3747 17.4396C23.6007 16.8402 23.7161 16.0942 23.7484 15.3541Z" fill="#35312B"/>
</svg>
