<svg width="235" height="235" viewBox="0 0 235 235" fill="none" xmlns="http://www.w3.org/2000/svg">
<path d="M116.212 19.8122C154.535 12.8373 181.274 40.067 188.248 78.3901C195.223 116.713 179.794 151.617 141.471 158.592C103.148 165.567 55.2558 157.24 48.2809 118.917C41.306 80.5942 77.8893 26.7871 116.212 19.8122Z" fill="#FFD035"/>
<g clip-path="url(#clip0_217_360)">
<path fill-rule="evenodd" clip-rule="evenodd" d="M118.06 56.4189C119.35 57.4539 120.466 58.339 121.059 58.8037C124.671 61.6225 132.792 69.7124 140.346 73.4095C146.108 76.232 151.558 76.5135 155.06 71.5555C158.242 67.049 157.183 60.824 153.467 54.2202C145.469 40.0073 125.434 23.7528 118.113 20.4053C117.314 20.0403 116.372 20.3898 116.007 21.1892C115.643 21.9849 115.993 22.9267 116.792 23.2917C123.817 26.5058 143.022 42.1337 150.701 55.7781C153.701 61.1116 155.035 66.0845 152.464 69.7244C149.927 73.3179 145.921 72.6038 141.744 70.5575C134.391 66.961 126.529 59.0457 123.013 56.2991C120.809 54.5785 112.586 47.7788 111.741 47.3657C110.683 46.8477 110.012 47.4841 109.807 47.7095C109.648 47.884 108.913 48.8049 109.832 49.9184C122.929 65.8028 132.031 99.2427 128.892 129.833C125.781 160.155 110.556 187.743 74.7373 192.242C73.8675 192.353 73.2503 193.148 73.3575 194.016C73.4684 194.886 74.2636 195.503 75.1333 195.392C112.663 190.677 128.793 161.925 132.052 130.16C134.8 103.388 128.342 74.5223 118.06 56.4189Z" fill="#17151D"/>
<path fill-rule="evenodd" clip-rule="evenodd" d="M76.7636 193.331C79.3491 190.622 82.0096 188.007 84.3861 185.095C90.7187 177.339 95.6561 167.939 97.6252 158.085C97.7956 157.222 97.2362 156.387 96.3786 156.215C95.5158 156.044 94.6811 156.604 94.5085 157.461C92.6453 166.814 87.9338 175.727 81.9251 183.084C79.2033 186.416 76.1008 189.357 73.1768 192.502C73.0328 192.66 71.7205 193.988 71.5205 194.344C71.0501 195.171 71.3833 195.814 71.5757 196.092C71.7336 196.326 71.9786 196.568 72.3697 196.734C72.6913 196.869 73.3617 196.981 74.29 196.94C77.2639 196.819 84.16 195.542 85.3141 195.452C98.5438 194.419 111.025 195.68 124.199 196.678C125.074 196.741 125.839 196.085 125.906 195.212C125.972 194.339 125.315 193.578 124.442 193.511C111.101 192.499 98.4602 191.24 85.0699 192.288C84.2764 192.347 79.8999 192.916 76.7636 193.331Z" fill="#17151D"/>
</g>
<defs>
<clipPath id="clip0_217_360">
<rect width="181.022" height="181.022" fill="white" transform="translate(234.601 66.0659) rotate(111.405)"/>
</clipPath>
</defs>
</svg>
