<svg width="184" height="190" viewBox="0 0 184 190" fill="none" xmlns="http://www.w3.org/2000/svg">
<path d="M125.207 21.8908C162.832 31.9725 175.359 68.0204 165.277 105.646C155.196 143.271 126.323 168.226 88.6975 158.144C51.0721 148.063 11.3398 120.057 21.4215 82.4316C31.5032 44.8062 87.5811 11.8091 125.207 21.8908Z" fill="#EB0028"/>
<g clip-path="url(#clip0_254_327)">
<path fill-rule="evenodd" clip-rule="evenodd" d="M13.8312 173.771C18.1895 155.094 24.4844 146.851 32.1115 144.057C39.7386 141.257 48.3342 143.909 56.9298 146.567C62.862 148.436 68.9152 150.344 74.4842 150.687C80.2953 151.049 85.7434 149.718 90.465 145.03C91.5546 143.904 92.5233 142.079 93.1286 139.645C94.0972 136.343 94.7025 131.848 94.9446 126.575C96.1553 106.572 93.7344 75.0866 96.64 55.9119C97.2453 51.504 98.2131 47.7661 99.5448 45.0161C100.755 42.623 102.208 41.006 104.145 40.5945C105.719 40.2587 107.535 40.7291 109.835 42.0058C113.709 44.1856 118.31 48.6314 124.121 55.8423C129.205 62.1547 133.444 69.2658 138.407 75.7235C146.156 85.8327 154.266 96.0781 163.346 104.189C163.952 104.702 164.799 104.65 165.283 104.076C165.888 103.499 165.768 102.616 165.162 102.103C156.203 94.107 148.213 83.9948 140.586 74.0277C135.744 67.5535 131.386 60.4242 126.301 54.0952C120.248 46.5061 115.284 41.8727 111.168 39.578C108.262 37.8732 105.719 37.4103 103.54 37.8596C101.361 38.3225 99.424 39.758 97.9712 42.0603C96.0342 45.1068 94.702 49.7719 93.8546 55.4989C90.949 74.7417 93.371 106.34 92.1604 126.415C91.9182 131.446 91.3124 135.738 90.465 138.888C89.9807 140.757 89.3752 142.197 88.4066 143.06C84.4115 147.111 79.6907 148.21 74.606 147.898C69.2791 147.567 63.468 145.698 57.6569 143.898C48.577 141.05 39.2545 138.435 31.1432 141.434C23.0319 144.438 15.768 153.059 11.1675 173.139C10.9254 173.89 11.4094 174.642 12.1358 174.816C12.8622 174.99 13.7101 174.523 13.8312 173.771Z" fill="black"/>
<path fill-rule="evenodd" clip-rule="evenodd" d="M9.80696 172.683C9.6859 172.488 9.4433 171.957 9.32223 171.518C8.59584 169.385 7.87016 166.075 7.62803 165.104C4.96461 156.514 2.78544 146.898 2.78544 137.696C2.78544 136.925 2.1794 136.3 1.45301 136.301C0.605561 136.303 0 136.929 0 137.701C0 147.168 2.30023 157.064 4.84259 165.904C5.20579 166.889 5.93218 170.249 6.65857 172.415C6.9007 173.194 7.14354 173.838 7.38567 174.244C7.6278 174.577 7.86945 174.805 8.11158 174.949C8.59584 175.321 9.32294 175.502 10.0493 175.478C10.8968 175.451 11.8651 175.171 12.8336 174.696C14.8917 173.767 17.3127 172.069 19.2498 170.725C20.3394 169.954 21.3081 169.296 21.9135 169.095C27.1192 167.369 32.8088 169.208 37.1671 175.18C37.6514 175.8 38.4996 175.935 39.1049 175.478C39.7102 175.021 39.8311 174.146 39.4679 173.524C34.141 166.361 27.3611 164.369 21.0658 166.441C19.4919 166.941 16.1026 169.697 13.076 171.457C12.1074 171.961 11.2593 172.376 10.5329 172.578C10.2907 172.637 10.1697 172.678 9.92756 172.684C9.92756 172.687 9.80696 172.692 9.80696 172.683Z" fill="black"/>
</g>
<defs>
<clipPath id="clip0_254_327">
<rect width="166" height="166" fill="white" transform="translate(0 24)"/>
</clipPath>
</defs>
</svg>
