<svg width="176" height="194" viewBox="0 0 176 194" fill="none" xmlns="http://www.w3.org/2000/svg">
<path d="M151.392 123.077C151.392 162.03 109.483 193.607 70.53 193.607C31.5774 193.607 0 162.03 0 123.077C0 84.1243 13.9538 49.0392 52.9065 49.0392C91.8591 49.0392 151.392 84.1243 151.392 123.077Z" fill="#FFCB3C"/>
<mask id="mask0_67_374" style="mask-type:alpha" maskUnits="userSpaceOnUse" x="0" y="0" width="176" height="194">
<path d="M141.06 123.077C141.06 162.03 109.483 193.607 70.53 193.607C31.5774 193.607 0 162.03 0 123.077C0 84.1243 123.98 3.07164e-06 162.932 3.07164e-06C201.885 3.07164e-06 141.06 84.1243 141.06 123.077Z" fill="#FFCB3C"/>
</mask>
<g mask="url(#mask0_67_374)">
<path fill-rule="evenodd" clip-rule="evenodd" d="M62.1278 113.635C57.768 111.805 52.8422 111.441 47.4128 113.03C28.8728 118.456 21.2808 132.903 20.2655 150.114C18.8432 174.304 30.9113 204.083 41.7198 218.879C42.9832 220.608 45.4092 220.984 47.1376 219.724C48.8622 218.461 49.242 216.035 47.9786 214.306C37.9567 200.587 26.6832 173.002 28.0047 150.571C28.8185 136.697 34.6472 124.842 49.5908 120.467C52.8229 119.521 55.7642 119.653 58.4112 120.583C57.5508 122.308 56.7292 124.036 55.9502 125.765C52.8383 132.686 48.1878 151.904 49.924 166.034C51.2998 177.215 56.5819 185.233 67.4796 184.938C73.719 184.772 78.3231 181.001 81.0863 174.82C84.4928 167.197 84.9579 155.536 82.5628 144.355C80.5748 135.058 76.6295 126.137 71.0954 120.138C70.3203 119.297 69.5142 118.51 68.681 117.781C86.8489 85.5728 119.639 55.6856 153.305 42.9549C155.304 42.1992 156.312 39.963 155.556 37.9594C154.8 35.9597 152.561 34.9522 150.561 35.7079C115.446 48.985 81.2181 80.0619 62.1278 113.635ZM64.922 124.9C64.2631 126.245 63.6274 127.594 63.0229 128.942C60.2287 135.155 56.0589 152.404 57.6168 165.088C58.4422 171.801 60.7326 177.366 67.2743 177.191C70.4831 177.106 72.5913 174.835 74.0097 171.657C75.8931 167.445 76.5637 161.732 76.2653 155.652C75.7964 146.219 72.948 135.895 67.9332 128.594C67.0069 127.245 66.0032 126.001 64.922 124.9Z" fill="#35312B"/>
<path fill-rule="evenodd" clip-rule="evenodd" d="M127.355 91.4274C130.378 73.7981 141.938 55.0411 154.359 42.0429C155.835 40.4966 155.781 38.0435 154.235 36.5631C152.688 35.0866 150.231 35.1409 148.755 36.6872C135.334 50.7355 122.979 71.0698 119.716 90.1174C119.356 92.2257 120.774 94.2293 122.883 94.5897C124.991 94.9501 126.994 93.5356 127.355 91.4274Z" fill="#35312B"/>
<path fill-rule="evenodd" clip-rule="evenodd" d="M149.088 35.9469C136.319 43.2366 116.732 44.1899 102.455 40.4928C100.382 39.958 98.266 41.2059 97.7312 43.2754C97.1964 45.3449 98.4405 47.4608 100.514 47.9995C116.566 52.1501 138.574 50.8751 152.933 42.6786C154.789 41.6206 155.436 39.2488 154.374 37.3924C153.312 35.5361 150.945 34.8889 149.088 35.9469Z" fill="#35312B"/>
</g>
</svg>
