<svg width="166" height="166" viewBox="0 0 166 166" fill="none" xmlns="http://www.w3.org/2000/svg">
<g clip-path="url(#clip0_73_699)">
<path fill-rule="evenodd" clip-rule="evenodd" d="M13.8312 149.771C18.1895 131.094 24.4844 122.851 32.1115 120.057C39.7386 117.257 48.3342 119.909 56.9298 122.567C62.862 124.436 68.9152 126.344 74.4842 126.687C80.2953 127.049 85.7434 125.718 90.465 121.03C91.5546 119.904 92.5233 118.079 93.1286 115.645C94.0972 112.343 94.7025 107.848 94.9446 102.575C96.1553 82.5715 93.7344 51.0866 96.64 31.9119C97.2453 27.504 98.2131 23.7661 99.5448 21.0161C100.755 18.623 102.208 17.006 104.145 16.5945C105.719 16.2587 107.535 16.7291 109.835 18.0058C113.709 20.1856 118.31 24.6314 124.121 31.8423C129.205 38.1547 133.444 45.2658 138.407 51.7235C146.156 61.8327 154.266 72.0781 163.346 80.189C163.952 80.7018 164.799 80.6504 165.283 80.0756C165.888 79.4993 165.768 78.6159 165.162 78.1031C156.203 70.107 148.213 59.9948 140.586 50.0277C135.744 43.5535 131.386 36.4242 126.301 30.0952C120.248 22.5061 115.284 17.8727 111.168 15.578C108.262 13.8732 105.719 13.4103 103.54 13.8596C101.361 14.3225 99.424 15.758 97.9712 18.0603C96.0342 21.1068 94.702 25.7719 93.8546 31.4989C90.949 50.7417 93.371 82.3401 92.1604 102.415C91.9182 107.446 91.3124 111.738 90.465 114.888C89.9807 116.757 89.3752 118.197 88.4066 119.06C84.4115 123.111 79.6907 124.21 74.606 123.898C69.2791 123.567 63.468 121.698 57.6569 119.898C48.577 117.05 39.2545 114.435 31.1432 117.434C23.0319 120.438 15.768 129.059 11.1675 149.138C10.9254 149.89 11.4094 150.642 12.1358 150.816C12.8622 150.99 13.7101 150.523 13.8312 149.771Z" fill="black"/>
<path fill-rule="evenodd" clip-rule="evenodd" d="M9.80696 148.683C9.6859 148.488 9.4433 147.957 9.32223 147.518C8.59584 145.385 7.87016 142.075 7.62803 141.104C4.96461 132.514 2.78544 122.898 2.78544 113.696C2.78544 112.925 2.1794 112.3 1.45301 112.301C0.605561 112.303 0 112.929 0 113.701C0 123.168 2.30023 133.064 4.84259 141.904C5.20579 142.889 5.93218 146.249 6.65857 148.415C6.9007 149.194 7.14354 149.838 7.38567 150.244C7.6278 150.577 7.86945 150.805 8.11158 150.949C8.59584 151.321 9.32294 151.502 10.0493 151.478C10.8968 151.451 11.8651 151.171 12.8336 150.696C14.8917 149.767 17.3127 148.069 19.2498 146.725C20.3394 145.954 21.3081 145.296 21.9135 145.095C27.1192 143.369 32.8088 145.208 37.1672 151.18C37.6514 151.8 38.4996 151.935 39.1049 151.478C39.7102 151.021 39.8311 150.146 39.4679 149.524C34.141 142.361 27.3611 140.369 21.0658 142.441C19.4919 142.941 16.1026 145.697 13.076 147.457C12.1074 147.961 11.2593 148.376 10.5329 148.578C10.2908 148.637 10.1697 148.678 9.92756 148.684C9.92756 148.687 9.80696 148.692 9.80696 148.683Z" fill="black"/>
</g>
<defs>
<clipPath id="clip0_73_699">
<rect width="166" height="166" fill="white"/>
</clipPath>
</defs>
</svg>
