<svg width="117" height="108" viewBox="0 0 117 108" fill="none" xmlns="http://www.w3.org/2000/svg">
<path fill-rule="evenodd" clip-rule="evenodd" d="M69.8838 100.246C74.0884 101.157 78.2399 102.096 82.4689 102.884C83.3781 103.057 84.2476 102.463 84.4166 101.559C84.5895 100.65 83.9898 99.7761 83.086 99.6071C78.881 98.8199 74.7644 97.8905 70.5892 96.9843C69.6865 96.7913 68.7992 97.3644 68.6048 98.2578C68.4118 99.1605 68.9811 100.053 69.8838 100.246Z" fill="black"/>
<path fill-rule="evenodd" clip-rule="evenodd" d="M59.0496 66.3544C70.9627 59.805 82.5373 52.6577 94.3028 45.8585C95.1014 45.3942 95.3722 44.3747 94.9133 43.58C94.4489 42.7814 93.4335 42.5053 92.6295 42.9657C80.8866 49.7567 69.3348 56.8959 57.443 63.4278C56.6322 63.8749 56.3412 64.8878 56.7829 65.6946C57.23 66.5053 58.2428 66.7962 59.0496 66.3544Z" fill="black"/>
<path fill-rule="evenodd" clip-rule="evenodd" d="M21.5909 34.7477C26.8594 24.5338 31.8502 14.1566 37.2327 4.00182C37.6587 3.18803 37.3489 2.18006 36.5391 1.74869C35.7239 1.31336 34.7119 1.62854 34.2806 2.43836C28.8955 12.6078 23.8967 22.9958 18.6257 33.2245C18.2051 34.0422 18.5241 35.0489 19.3419 35.4695C20.165 35.8941 21.1663 35.5708 21.5909 34.7477Z" fill="black"/>
</svg>
