<svg width="31" height="29" viewBox="0 0 31 29" fill="none" xmlns="http://www.w3.org/2000/svg">
<path fill-rule="evenodd" clip-rule="evenodd" d="M13.2288 4.88139C13.1915 4.09462 13.199 3.32869 13.2362 2.60965C13.3628 0.447332 15.3725 0.454782 15.5288 0.457759C15.8563 0.465203 17.3153 0.557491 17.6651 2.24343C17.6875 2.34392 17.7396 3.07188 17.7545 3.3525C17.7842 3.95095 17.7991 4.539 17.7172 5.12926C17.7916 6.1304 17.9554 7.16058 18.268 8.12972C18.7221 9.56034 19.459 10.8808 20.7914 11.5842C23.1733 12.8496 26.3069 12.7982 28.927 13.1198C30.0212 13.2538 30.8549 14.1663 30.8921 15.2679C30.9219 16.3703 30.1478 17.332 29.061 17.5322C25.7859 18.1381 22.0195 21.1163 19.6227 23.5146C18.8858 24.2515 18.0596 26.0066 17.1366 27.1306C16.3922 28.0312 15.566 28.6349 14.7844 28.8746C14.4792 28.9676 12.7896 29.307 12.0304 27.5578C11.822 27.0666 11.0851 24.4941 11.0181 24.2008C10.6161 22.5201 10.043 21.0187 8.91906 19.6819C7.94396 18.523 6.76041 17.5107 5.3387 16.9494C4.76556 16.7232 4.17008 16.5512 3.57461 16.3741C3.36619 16.3488 2.77817 16.2743 2.56975 16.2036C2.14548 16.0622 1.83282 15.8404 1.60952 15.6193C1.18524 15.201 0.969354 14.7015 0.932136 14.1328C0.902363 13.7577 0.954478 13.3126 1.22244 12.8191C1.42342 12.4685 1.87745 11.9407 2.69624 11.5983C3.55223 11.2403 5.39082 10.9001 5.71833 10.8116C7.99603 10.1982 10.2291 9.26559 11.9783 7.64887C12.8492 6.84052 13.0501 5.96888 13.2288 4.88139ZM14.6877 11.2113C15.5661 13.032 16.876 14.5646 18.6997 15.53C19.4515 15.9312 20.2703 16.2356 21.1188 16.4723C19.3696 17.6901 17.7469 19.0745 16.4592 20.3578C16.0424 20.7754 15.5884 21.4512 15.1045 22.1933C14.5388 20.2119 13.7052 18.4322 12.3356 16.8036C11.5242 15.8434 10.6087 14.9658 9.5889 14.2341C11.4349 13.5031 13.1842 12.5251 14.6877 11.2113Z" fill="#35312B"/>
</svg>
