<svg width="425" height="155" viewBox="0 0 425 155" fill="none" xmlns="http://www.w3.org/2000/svg">
<path fill-rule="evenodd" clip-rule="evenodd" d="M75.5575 73.1996C70.9176 74.0676 66.5629 75.3243 62.6358 77.0863C62.2081 77.2806 62.0784 77.5526 62.0395 77.6692C61.9747 77.8765 62.0007 78.0709 62.1044 78.2523C62.1692 78.3689 62.273 78.5114 62.4933 78.6021C62.6488 78.6669 63.0505 78.7187 63.5819 78.7057C64.4892 78.6928 65.889 78.5892 66.5629 78.5892C68.8699 78.6151 71.1768 78.602 73.4838 78.6409C80.8325 78.7704 82.1155 78.8741 91.5637 78.7963C102.593 78.7057 113.649 78.5502 124.691 78.317C89.5938 80.2603 54.5484 82.5276 19.6845 84.6393C19.2957 84.6652 18.9976 85.0022 19.0235 85.3908C19.0365 85.7925 19.3864 86.0905 19.7752 86.0646C101.129 81.1414 183.376 75.3373 265.352 74.9615C269.396 75.0522 273.426 75.1429 277.444 75.2336C301.719 75.8036 326.007 76.4903 350.256 77.5527C358.149 77.9025 366.042 78.2911 373.948 78.6538C376.281 78.7575 378.627 78.8611 380.973 78.9648C382.865 79.0425 387.738 79.3276 388.425 79.3405C389.048 79.3535 389.203 78.7965 389.216 78.7706C389.255 78.5892 389.229 78.3818 389.073 78.1875C389.035 78.1356 388.931 77.9932 388.698 77.9284C388.659 77.9284 388.477 77.9024 388.101 77.8636C368.609 76.27 349.064 75.1688 329.481 74.4692C332.112 74.4951 334.743 74.5082 337.374 74.5341C357.657 74.6895 377.992 75.2466 398.262 74.5341C402.876 74.3786 407.503 74.1972 412.104 73.9769C415.202 73.8344 423.173 74.0158 424.3 73.679C424.819 73.5364 424.935 73.1736 424.948 72.9923C424.961 72.785 424.922 72.5518 424.689 72.3445C424.585 72.2408 424.261 72.0725 423.652 71.943C403.758 67.6287 380.481 68.8465 360.223 67.6416C305.206 64.3379 250.382 66.5405 195.378 68.5486C147.903 70.2846 100.429 70.3753 52.9801 72.7332C35.613 73.5883 17.7016 72.6037 0.580669 75.8685C0.191852 75.9463 -0.054481 76.3089 0.0103218 76.6975C0.0880851 77.0862 0.463973 77.3454 0.85279 77.2677C17.8959 74.0158 35.7426 75.0134 53.045 74.1583C60.5492 73.7826 68.0533 73.4717 75.5575 73.1996ZM222.336 74.1583C193.265 73.7049 164.195 73.4716 135.098 73.6141C115.139 73.7048 86.0556 69.909 66.2259 77.1641C66.3685 77.1641 66.485 77.1641 66.5887 77.1641C68.8957 77.19 71.2028 77.164 73.5098 77.2158C80.8454 77.3454 82.1284 77.449 91.5508 77.3713C115.644 77.164 139.803 76.6458 163.884 75.8426C183.389 75.1948 202.869 74.6117 222.336 74.1583ZM418.986 72.487C400.181 69.1963 378.86 70.181 360.132 69.0669C305.167 65.7632 250.382 67.9656 195.43 69.9737C170.869 70.8806 146.322 71.334 121.788 71.8911C126.493 72.0725 130.99 72.202 135.098 72.189C176.689 71.9817 218.266 72.5389 259.857 73.4199C285.687 73.0312 311.517 72.8887 337.387 73.096C357.657 73.2644 377.953 73.8086 398.224 73.109C402.824 72.9535 407.439 72.7721 412.039 72.5518C413.608 72.487 416.446 72.4999 418.986 72.487Z" fill="#FFD035"/>
</svg>
