<svg width="325" height="127" viewBox="0 0 325 127" fill="none" xmlns="http://www.w3.org/2000/svg">
<path fill-rule="evenodd" clip-rule="evenodd" d="M137.869 54.7121C122.618 55.3224 107.546 56.0728 92.8492 56.8932C72.0435 58.0537 51.246 59.2542 30.5738 61.1551C24.0667 61.7554 17.4586 62.1355 10.9921 62.8858C6.93287 63.3561 1.55041 64.0263 0.84403 64.1663C0.474564 64.2464 0.313379 64.3665 0.261296 64.4066C-0.104915 64.6867 -0.0380947 64.9567 0.168611 65.1668C0.251619 65.2568 0.461521 65.477 1.0442 65.507C40.0123 67.5579 79.8593 63.5561 118.875 63.136C186.534 62.4156 256.244 65.2769 323.366 71.5197C323.952 71.5698 324.522 71.3196 324.603 70.9494C324.701 70.5892 324.278 70.2391 323.692 70.1891C256.456 63.9362 186.632 61.0649 118.842 61.7953C82.4813 62.1854 45.4029 65.6971 8.99178 64.4966C9.82837 64.3965 10.6487 64.2964 11.3974 64.2064C17.8378 63.456 24.4182 63.0859 30.8993 62.4856C51.5276 60.5848 72.2828 59.3842 93.0608 58.2337C118.842 56.7931 145.746 55.5525 172.862 54.9723C182.563 55.0623 192.231 55.1524 201.898 55.2624C222.813 55.5025 243.826 56.2029 264.692 57.1433C270.974 57.4334 277.257 57.7335 283.539 57.9936C285.622 58.0837 290.994 58.3437 291.742 58.3237C292.67 58.3037 292.849 57.8236 292.865 57.7435C292.914 57.5634 292.881 57.3133 292.426 57.1032C292.377 57.0732 292.084 56.9731 291.433 56.9131C253.493 53.3715 212.983 52.7813 172.895 53.6317C130.61 53.2615 88.1617 53.1014 45.984 52.9313C45.3801 52.9313 44.887 53.2315 44.8821 53.6016C44.8788 53.9718 45.3654 54.272 45.9693 54.282C76.5096 54.4021 107.205 54.522 137.869 54.7121Z" fill="#EB0028"/>
</svg>
