<svg width="425" height="22" viewBox="0 0 425 22" fill="none" xmlns="http://www.w3.org/2000/svg">
<path fill-rule="evenodd" clip-rule="evenodd" d="M75.5575 8.1996C70.9176 9.06763 66.5629 10.3243 62.6358 12.0863C62.2081 12.2806 62.0784 12.5526 62.0395 12.6692C61.9747 12.8765 62.0007 13.0709 62.1044 13.2523C62.1692 13.3689 62.273 13.5114 62.4933 13.6021C62.6488 13.6669 63.0505 13.7187 63.5819 13.7057C64.4892 13.6928 65.889 13.5892 66.5629 13.5892C68.8699 13.6151 71.1768 13.602 73.4838 13.6409C80.8325 13.7704 82.1155 13.8741 91.5637 13.7963C102.593 13.7057 113.649 13.5502 124.691 13.317C89.5938 15.2603 54.5484 17.5276 19.6845 19.6393C19.2957 19.6652 18.9976 20.0022 19.0235 20.3908C19.0365 20.7925 19.3864 21.0905 19.7752 21.0646C101.129 16.1414 183.376 10.3373 265.352 9.96154C269.396 10.0522 273.426 10.1429 277.444 10.2336C301.719 10.8036 326.007 11.4903 350.256 12.5527C358.149 12.9025 366.042 13.2911 373.948 13.6538C376.281 13.7575 378.627 13.8611 380.973 13.9648C382.865 14.0425 387.738 14.3276 388.425 14.3405C389.048 14.3535 389.203 13.7965 389.216 13.7706C389.255 13.5892 389.229 13.3818 389.073 13.1875C389.035 13.1356 388.931 12.9932 388.698 12.9284C388.659 12.9284 388.477 12.9024 388.101 12.8636C368.609 11.27 349.064 10.1688 329.481 9.46922C332.112 9.49514 334.743 9.50815 337.374 9.53407C357.657 9.68953 377.992 10.2466 398.262 9.53407C402.876 9.3786 407.503 9.19715 412.104 8.97691C415.202 8.8344 423.173 9.0158 424.3 8.67895C424.819 8.53644 424.935 8.17365 424.948 7.99227C424.961 7.78498 424.922 7.55178 424.689 7.34449C424.585 7.24085 424.261 7.07251 423.652 6.94295C403.758 2.62875 380.481 3.84648 360.223 2.64161C305.206 -0.662057 250.382 1.54049 195.378 3.5486C147.903 5.28465 100.429 5.37531 52.9801 7.73322C35.613 8.58829 17.7016 7.60372 0.580669 10.8685C0.191852 10.9463 -0.054481 11.3089 0.0103218 11.6975C0.0880851 12.0862 0.463973 12.3454 0.85279 12.2677C17.8959 9.01582 35.7426 10.0134 53.045 9.1583C60.5492 8.78259 68.0533 8.47167 75.5575 8.1996ZM222.336 9.1583C193.265 8.70486 164.195 8.4716 135.098 8.61411C115.139 8.7048 86.0556 4.90897 66.2259 12.1641C66.3685 12.1641 66.485 12.1641 66.5887 12.1641C68.8957 12.19 71.2028 12.164 73.5098 12.2158C80.8454 12.3454 82.1284 12.449 91.5508 12.3713C115.644 12.164 139.803 11.6458 163.884 10.8426C183.389 10.1948 202.869 9.61175 222.336 9.1583ZM418.986 7.48698C400.181 4.19627 378.86 5.18103 360.132 4.06685C305.167 0.763183 250.382 2.96557 195.43 4.97368C170.869 5.88057 146.322 6.33399 121.788 6.89108C126.493 7.07246 130.99 7.20199 135.098 7.18903C176.689 6.98174 218.266 7.53893 259.857 8.41991C285.687 8.03124 311.517 7.88873 337.387 8.09602C357.657 8.26444 377.953 8.80859 398.224 8.10898C402.824 7.95352 407.439 7.77207 412.039 7.55183C413.608 7.48705 416.446 7.49994 418.986 7.48698Z" fill="#FFD035"/>
</svg>
