<svg width="122" height="18" viewBox="0 0 122 18" fill="none" xmlns="http://www.w3.org/2000/svg">
<path fill-rule="evenodd" clip-rule="evenodd" d="M32.5172 10.6001C27.2757 12.2268 21.2242 13.8456 15.4027 14.2498C10.4269 14.5948 5.6207 14.0589 1.68679 11.779C1.13225 11.458 0.43781 11.6787 0.137909 12.2728C-0.16245 12.8664 0.0441875 13.6097 0.59873 13.9312C4.89015 16.4177 10.1229 17.068 15.5503 16.6912C21.4766 16.2802 27.6374 14.6506 32.9839 13.0004C33.6043 14.3457 34.8889 15.5999 37.1519 16.5253C40.6277 17.9469 45.3736 17.9293 50.3731 17.1282C57.6243 15.9669 65.4244 13.1977 70.4395 11.2299C70.6453 11.1497 70.9516 11.022 71.3264 10.8536C71.4407 11.1238 71.5687 11.39 71.7104 11.6513C72.9402 13.9288 75.1164 15.7702 77.3336 16.4279C91.396 20.5983 107.808 15.6014 121.171 11.5348C121.775 11.3503 122.127 10.6731 121.958 10.0237C121.784 9.3743 121.153 8.997 120.545 9.18149C107.557 13.1345 91.6109 18.1221 77.9416 14.0697C76.2593 13.5705 74.6226 12.1553 73.69 10.4269C73.5848 10.2341 73.4934 10.0369 73.4065 9.83674C75.2489 8.85949 77.4159 7.49712 78.5817 6.03882C79.7794 4.54383 80.0766 2.94803 79.0343 1.4408C78.1382 0.152313 76.7804 0.0426937 75.3678 0.71067C73.8454 1.42611 72.2773 3.09872 71.7699 3.88366C70.819 5.34978 70.5173 6.94022 70.691 8.491C70.243 8.69359 69.8791 8.84431 69.6546 8.93239C64.7492 10.8566 57.125 13.5725 50.0348 14.7083C45.4728 15.4394 41.1393 15.5368 37.9675 14.24C36.6147 13.6865 35.721 13.0406 35.2359 12.2909C36.1932 11.9845 37.1163 11.6831 37.9981 11.3954C39.7422 10.8262 43.3735 9.88422 45.9679 8.20522C48.0311 6.87025 49.43 5.05423 49.3486 2.77773C49.307 1.60816 48.6748 0.827613 47.6685 0.390125C46.1649 -0.263171 43.5646 0.0529492 42.5963 0.273161C39.6595 0.93967 35.7397 3.6987 33.8004 6.8076C33.0264 8.04813 32.5661 9.34591 32.5172 10.6001ZM34.9296 9.83575C35.7594 9.56856 36.5612 9.30626 37.3316 9.05473C38.9595 8.52329 42.3627 7.67913 44.7852 6.11122C46.068 5.28127 47.1154 4.2869 47.0646 2.87118C47.0605 2.76108 46.9586 2.72977 46.8685 2.68475C46.7291 2.61575 46.5695 2.56827 46.3994 2.53108C45.2488 2.27954 43.7031 2.52275 43.0704 2.66662C40.6062 3.22596 37.3284 5.55776 35.7013 8.16654C35.3575 8.71756 35.0837 9.27886 34.9296 9.83575ZM72.9494 7.36449C74.0237 6.77286 75.1483 6.0574 76.0353 5.27883C76.5061 4.86532 76.9039 4.44008 77.1553 3.99868C77.3656 3.63362 77.4479 3.25972 77.1964 2.89857C77.0959 2.75225 76.945 2.74934 76.7896 2.77674C76.625 2.8061 76.4558 2.86872 76.2867 2.94947C75.1712 3.47504 74.0192 4.70285 73.6489 5.27883C73.2146 5.9468 72.9997 6.65345 72.9494 7.36449Z" fill="#4DD78A"/>
</svg>
