<svg width="237" height="45" viewBox="0 0 237 45" fill="none" xmlns="http://www.w3.org/2000/svg">
<path fill-rule="evenodd" clip-rule="evenodd" d="M87.8722 17.555C86.4274 17.8668 84.9911 18.1979 83.5632 18.5495C83.0434 18.6773 82.7255 19.2043 82.8515 19.726L82.8582 19.7466C75.1259 19.8853 67.3953 20.0983 59.6683 20.3874C48.5061 20.8055 37.273 21.4899 26.1486 22.5499C15.1551 23.5972 12.1179 23.8667 2.65919 25.6137C2.38869 25.6636 1.86692 25.6608 1.58616 25.7399C1.31918 25.815 1.12802 25.9457 1.00523 26.0736C0.847962 26.2358 0.757456 26.4225 0.719048 26.6268C0.678408 26.8495 0.690328 27.1215 0.880168 27.4252C1.41573 28.2778 2.28216 28.5115 3.33916 28.331C4.24862 28.1756 5.34831 27.6262 6.20977 27.563C20.5506 26.5125 34.8819 25.3484 49.2242 24.3188C71.1807 22.7427 93.0703 21.9927 114.963 21.5391C137.979 21.7283 160.983 22.5515 183.948 23.9601C198.904 24.8768 213.828 26.2424 228.765 27.4359C228.754 27.502 228.751 27.571 228.755 27.6413C228.787 28.1774 229.247 28.5856 229.781 28.5526C230.321 28.5192 235.143 28.3782 236.032 28.1573C236.541 28.0308 236.74 27.7147 236.806 27.5794C236.986 27.2082 236.997 26.805 236.597 26.4206C236.518 26.3469 236.371 26.225 236.101 26.1474C235.869 26.0792 235.296 25.9933 234.254 25.9144C217.525 24.6341 200.816 23.0453 184.068 22.017C176.591 21.5595 169.109 21.1622 161.622 20.8308C171.785 20.6915 181.952 20.5344 192.135 20.3072C192.573 20.2987 192.786 20.227 192.825 20.21C193.384 19.967 193.424 19.5229 193.413 19.2713C193.41 19.1815 193.336 18.4402 192.515 18.3367C192.035 18.2758 188.567 18.1591 187.232 18.0889C180.821 17.7456 180.97 17.8002 174.411 17.5045C159.986 16.8562 145.582 16.4283 131.141 16.0843C125.382 15.9474 119.625 15.838 113.865 15.7589C130.465 14.3274 147.406 14.3741 163.551 14.1884C171.88 14.0928 180.211 14.0493 188.54 14.1517C192.27 14.1977 195.999 14.3066 199.729 14.3713C200.888 14.3913 202.043 14.4385 203.201 14.4655C203.338 14.4685 205.134 14.4822 205.429 14.4755C206.2 14.4582 206.378 13.7674 206.385 13.7398C206.418 13.6098 206.547 12.6805 205.588 12.5378C191.741 10.4753 177.223 10.9704 163.235 10.6424C138.754 10.0682 114.206 10.2118 89.7248 10.9926C78.8965 11.3378 68.1027 12.0502 57.2892 12.759C51.8886 13.1131 46.4737 13.4881 41.1242 14.3472C40.5875 14.4335 39.3713 14.5227 38.7813 14.625C38.4811 14.6772 38.2673 14.7594 38.1694 14.8155C37.7403 15.059 37.6546 15.4167 37.6476 15.6675C37.6431 15.8554 37.6824 16.5171 38.5659 16.7187C51.1901 19.6028 65.2031 17.7309 78.0249 17.6128C81.3071 17.5825 84.5884 17.5634 87.8722 17.555ZM98.5637 17.5649C94.7601 18.1517 90.994 18.8478 87.281 19.6757C96.5119 19.5438 105.743 19.5174 114.978 19.5936C130.213 19.2779 145.448 19.1052 160.701 18.8973C150.839 18.5395 140.974 18.2649 131.092 18.0297C120.253 17.7715 109.409 17.6119 98.5637 17.5649ZM151.356 12.3659C130.836 12.0769 110.287 12.2832 89.7852 12.9372C78.9762 13.2819 68.2051 13.9932 57.4127 14.7007C53.166 14.9791 48.9077 15.269 44.6825 15.8038C55.5972 17.1474 67.2295 15.7663 78.0101 15.6672C84.8186 15.6046 91.6304 15.5893 98.44 15.6185C115.757 12.9668 133.845 12.5558 151.356 12.3659Z" fill="#FFA9D9"/>
</svg>
