<svg width="21" height="30" viewBox="0 0 21 30" fill="none" xmlns="http://www.w3.org/2000/svg">
<g clip-path="url(#clip0_30_257)">
<path d="M8.12926 1.73721e-07C5.51849 1.73721e-07 3.38733 2.09733 3.38733 4.66667C3.38733 7.236 5.51849 9.33333 8.12926 9.33333C9.2458 9.33312 10.3262 8.9439 11.179 8.23467C12.0306 8.94417 13.1103 9.33347 14.226 9.33333C16.8368 9.33333 18.968 7.236 18.968 4.66667C18.968 2.09733 16.8368 1.73721e-07 14.226 1.73721e-07C13.1109 -0.000192932 12.0318 0.388604 11.1804 1.09733C10.3269 0.388434 9.24606 -0.000300008 8.12926 1.73721e-07ZM8.12926 1.33333C8.94894 1.33333 9.6853 1.63 10.2699 2.104C9.75707 2.86362 9.4835 3.75533 9.4835 4.66733C9.4835 5.57934 9.75707 6.47104 10.2699 7.23067C9.6698 7.72568 8.9123 7.99792 8.12926 8C6.2501 8 4.74217 6.516 4.74217 4.66667C4.74217 2.81733 6.2501 1.33333 8.12926 1.33333ZM14.226 1.33333C16.1045 1.33333 17.6131 2.818 17.6131 4.66667C17.6131 6.51533 16.1045 8 14.226 8C12.3476 8 10.8389 6.51533 10.8389 4.66667C10.8389 2.818 12.3476 1.33333 14.226 1.33333ZM2.82507 10.6667C1.38691 10.6667 0.0815217 11.7293 0.00429591 13.1913C-0.063446 14.4827 0.826006 15.5927 2.03249 15.9047V29.3333C2.03249 29.5101 2.10386 29.6797 2.2309 29.8047C2.35794 29.9298 2.53025 30 2.70991 30C2.88957 30 3.06188 29.9298 3.18892 29.8047C3.31596 29.6797 3.38733 29.5101 3.38733 29.3333V16H10.3512L11.5502 19.544C11.5952 19.6769 11.6816 19.7925 11.7971 19.8744C11.9126 19.9562 12.0514 20.0002 12.1938 20H18.2906C19.0472 20 19.6454 20.5887 19.6454 21.3333C19.6454 22.078 19.0472 22.6667 18.2906 22.6667H11.6207C11.5618 22.6572 11.5019 22.6554 11.4425 22.6613H11.4385C11.0488 22.6473 10.6714 22.5231 10.3516 22.3036C10.0318 22.084 9.78307 21.7784 9.63517 21.4233C9.62236 21.3923 9.60719 21.3622 9.58978 21.3333L7.35497 17.6573C7.31104 17.5788 7.25148 17.5099 7.17985 17.4545C7.10822 17.3992 7.02599 17.3587 6.93808 17.3353C6.85017 17.312 6.75837 17.3063 6.66818 17.3187C6.57799 17.331 6.49126 17.3611 6.41317 17.4072C6.33508 17.4533 6.26723 17.5144 6.21369 17.5869C6.16014 17.6594 6.12199 17.7418 6.10152 17.8291C6.08105 17.9164 6.07868 18.0069 6.09455 18.0951C6.11041 18.1834 6.1442 18.2676 6.19388 18.3427L8.42665 22.018C8.6459 22.5014 8.9791 22.9264 9.39862 23.2578C9.81815 23.5892 10.3119 23.8173 10.8389 23.9233V29.3333C10.8389 29.5101 10.9103 29.6797 11.0374 29.8047C11.1644 29.9298 11.3367 30 11.5164 30C11.696 30 11.8683 29.9298 11.9954 29.8047C12.1224 29.6797 12.1938 29.5101 12.1938 29.3333V24H18.2906C18.768 23.997 19.2358 23.8681 19.6454 23.6267V29.3333C19.6454 29.5101 19.7168 29.6797 19.8438 29.8047C19.9708 29.9298 20.1431 30 20.3228 30C20.5025 30 20.6748 29.9298 20.8018 29.8047C20.9289 29.6797 21.0002 29.5101 21.0002 29.3333V15.3333C21.0002 12.764 18.8691 10.6667 16.2583 10.6667H2.82507ZM2.82507 12H16.2583C18.1375 12 19.6454 13.484 19.6454 15.3333V19.04C19.2358 18.7985 18.768 18.6696 18.2906 18.6667H12.6815L11.7799 16H14.226C14.4057 16 14.578 15.9298 14.705 15.8047C14.8321 15.6797 14.9035 15.5101 14.9035 15.3333C14.9035 15.1565 14.8321 14.987 14.705 14.8619C14.578 14.7369 14.4057 14.6667 14.226 14.6667H10.946C10.8724 14.6546 10.7973 14.6546 10.7238 14.6667H2.81423C2.75962 14.6578 2.70411 14.6556 2.64894 14.66C2.4698 14.6542 2.29366 14.6131 2.13097 14.539C1.96828 14.465 1.82235 14.3596 1.70182 14.229C1.58128 14.0985 1.48861 13.9454 1.42928 13.779C1.36995 13.6125 1.34518 13.436 1.35643 13.26C1.39368 12.5593 2.06297 12 2.82507 12Z" fill="black"/>
</g>
<defs>
<clipPath id="clip0_30_257">
<rect width="21" height="30" fill="white"/>
</clipPath>
</defs>
</svg>
